<svg width="197" height="40" viewBox="0 0 197 40" fill="none" xmlns="http://www.w3.org/2000/svg">
<g clip-path="url(#clip0_49_2003)">
<path d="M45.6133 22.5H42.2148V8.69531C42.2148 7.73438 42.4023 6.92578 42.7773 6.26953C43.1602 5.60547 43.6953 5.10547 44.3828 4.76953C45.0781 4.42578 45.9023 4.25391 46.8555 4.25391C47.168 4.25391 47.4688 4.27734 47.7578 4.32422C48.0469 4.36328 48.3281 4.41406 48.6016 4.47656L48.5664 7.01953C48.418 6.98047 48.2617 6.95312 48.0977 6.9375C47.9336 6.92188 47.7422 6.91406 47.5234 6.91406C47.1172 6.91406 46.7695 6.98438 46.4805 7.125C46.1992 7.25781 45.9844 7.45703 45.8359 7.72266C45.6875 7.98828 45.6133 8.3125 45.6133 8.69531V22.5ZM48.1445 9.82031V12.2109H40.3281V9.82031H48.1445ZM49.375 16.2891V16.043C49.375 15.1133 49.5078 14.2578 49.7734 13.4766C50.0391 12.6875 50.4258 12.0039 50.9336 11.4258C51.4414 10.8477 52.0664 10.3984 52.8086 10.0781C53.5508 9.75 54.4023 9.58594 55.3633 9.58594C56.3242 9.58594 57.1797 9.75 57.9297 10.0781C58.6797 10.3984 59.3086 10.8477 59.8164 11.4258C60.332 12.0039 60.7227 12.6875 60.9883 13.4766C61.2539 14.2578 61.3867 15.1133 61.3867 16.043V16.2891C61.3867 17.2109 61.2539 18.0664 60.9883 18.8555C60.7227 19.6367 60.332 20.3203 59.8164 20.9062C59.3086 21.4844 58.6836 21.9336 57.9414 22.2539C57.1992 22.5742 56.3477 22.7344 55.3867 22.7344C54.4258 22.7344 53.5703 22.5742 52.8203 22.2539C52.0781 21.9336 51.4492 21.4844 50.9336 20.9062C50.4258 20.3203 50.0391 19.6367 49.7734 18.8555C49.5078 18.0664 49.375 17.2109 49.375 16.2891ZM52.75 16.043V16.2891C52.75 16.8203 52.7969 17.3164 52.8906 17.7773C52.9844 18.2383 53.1328 18.6445 53.3359 18.9961C53.5469 19.3398 53.8203 19.6094 54.1562 19.8047C54.4922 20 54.9023 20.0977 55.3867 20.0977C55.8555 20.0977 56.2578 20 56.5938 19.8047C56.9297 19.6094 57.1992 19.3398 57.4023 18.9961C57.6055 18.6445 57.7539 18.2383 57.8477 17.7773C57.9492 17.3164 58 16.8203 58 16.2891V16.043C58 15.5273 57.9492 15.043 57.8477 14.5898C57.7539 14.1289 57.6016 13.7227 57.3906 13.3711C57.1875 13.0117 56.918 12.7305 56.582 12.5273C56.2461 12.3242 55.8398 12.2227 55.3633 12.2227C54.8867 12.2227 54.4805 12.3242 54.1445 12.5273C53.8164 12.7305 53.5469 13.0117 53.3359 13.3711C53.1328 13.7227 52.9844 14.1289 52.8906 14.5898C52.7969 15.043 52.75 15.5273 52.75 16.043ZM62.9219 16.2891V16.043C62.9219 15.1133 63.0547 14.2578 63.3203 13.4766C63.5859 12.6875 63.9727 12.0039 64.4805 11.4258C64.9883 10.8477 65.6133 10.3984 66.3555 10.0781C67.0977 9.75 67.9492 9.58594 68.9102 9.58594C69.8711 9.58594 70.7266 9.75 71.4766 10.0781C72.2266 10.3984 72.8555 10.8477 73.3633 11.4258C73.8789 12.0039 74.2695 12.6875 74.5352 13.4766C74.8008 14.2578 74.9336 15.1133 74.9336 16.043V16.2891C74.9336 17.2109 74.8008 18.0664 74.5352 18.8555C74.2695 19.6367 73.8789 20.3203 73.3633 20.9062C72.8555 21.4844 72.2305 21.9336 71.4883 22.2539C70.7461 22.5742 69.8945 22.7344 68.9336 22.7344C67.9727 22.7344 67.1172 22.5742 66.3672 22.2539C65.625 21.9336 64.9961 21.4844 64.4805 20.9062C63.9727 20.3203 63.5859 19.6367 63.3203 18.8555C63.0547 18.0664 62.9219 17.2109 62.9219 16.2891ZM66.2969 16.043V16.2891C66.2969 16.8203 66.3438 17.3164 66.4375 17.7773C66.5312 18.2383 66.6797 18.6445 66.8828 18.9961C67.0938 19.3398 67.3672 19.6094 67.7031 19.8047C68.0391 20 68.4492 20.0977 68.9336 20.0977C69.4023 20.0977 69.8047 20 70.1406 19.8047C70.4766 19.6094 70.7461 19.3398 70.9492 18.9961C71.1523 18.6445 71.3008 18.2383 71.3945 17.7773C71.4961 17.3164 71.5469 16.8203 71.5469 16.2891V16.043C71.5469 15.5273 71.4961 15.043 71.3945 14.5898C71.3008 14.1289 71.1484 13.7227 70.9375 13.3711C70.7344 13.0117 70.4648 12.7305 70.1289 12.5273C69.793 12.3242 69.3867 12.2227 68.9102 12.2227C68.4336 12.2227 68.0273 12.3242 67.6914 12.5273C67.3633 12.7305 67.0938 13.0117 66.8828 13.3711C66.6797 13.7227 66.5312 14.1289 66.4375 14.5898C66.3438 15.043 66.2969 15.5273 66.2969 16.043ZM84.4961 19.7344V4.5H87.8945V22.5H84.8359L84.4961 19.7344ZM76.4805 16.3125V16.0664C76.4805 15.0977 76.5898 14.2188 76.8086 13.4297C77.0273 12.6328 77.3477 11.9492 77.7695 11.3789C78.1914 10.8086 78.7109 10.3672 79.3281 10.0547C79.9453 9.74219 80.6484 9.58594 81.4375 9.58594C82.1797 9.58594 82.8281 9.74219 83.3828 10.0547C83.9453 10.3672 84.4219 10.8125 84.8125 11.3906C85.2109 11.9609 85.5312 12.6367 85.7734 13.418C86.0156 14.1914 86.1914 15.0391 86.3008 15.9609V16.5C86.1914 17.3828 86.0156 18.2031 85.7734 18.9609C85.5312 19.7188 85.2109 20.3828 84.8125 20.9531C84.4219 21.5156 83.9453 21.9531 83.3828 22.2656C82.8203 22.5781 82.1641 22.7344 81.4141 22.7344C80.625 22.7344 79.9219 22.5742 79.3047 22.2539C78.6953 21.9336 78.1797 21.4844 77.7578 20.9062C77.3438 20.3281 77.0273 19.6484 76.8086 18.8672C76.5898 18.0859 76.4805 17.2344 76.4805 16.3125ZM79.8555 16.0664V16.3125C79.8555 16.8359 79.8945 17.3242 79.9727 17.7773C80.0586 18.2305 80.1953 18.6328 80.3828 18.9844C80.5781 19.3281 80.8281 19.5977 81.1328 19.793C81.4453 19.9805 81.8242 20.0742 82.2695 20.0742C82.8477 20.0742 83.3242 19.9453 83.6992 19.6875C84.0742 19.4219 84.3594 19.0586 84.5547 18.5977C84.7578 18.1367 84.875 17.6055 84.9062 17.0039V15.4688C84.8828 14.9766 84.8125 14.5352 84.6953 14.1445C84.5859 13.7461 84.4219 13.4062 84.2031 13.125C83.9922 12.8438 83.7266 12.625 83.4062 12.4688C83.0938 12.3125 82.7227 12.2344 82.293 12.2344C81.8555 12.2344 81.4805 12.3359 81.168 12.5391C80.8555 12.7344 80.6016 13.0039 80.4062 13.3477C80.2188 13.6914 80.0781 14.0977 79.9844 14.5664C79.8984 15.0273 79.8555 15.5273 79.8555 16.0664ZM102.344 22.7344C101.359 22.7344 100.477 22.5781 99.6953 22.2656C98.9141 21.9453 98.25 21.5039 97.7031 20.9414C97.1641 20.3789 96.75 19.7266 96.4609 18.9844C96.1719 18.2344 96.0273 17.4375 96.0273 16.5938V16.125C96.0273 15.1641 96.1641 14.2852 96.4375 13.4883C96.7109 12.6914 97.1016 12 97.6094 11.4141C98.125 10.8281 98.75 10.3789 99.4844 10.0664C100.219 9.74609 101.047 9.58594 101.969 9.58594C102.867 9.58594 103.664 9.73438 104.359 10.0312C105.055 10.3281 105.637 10.75 106.105 11.2969C106.582 11.8438 106.941 12.5 107.184 13.2656C107.426 14.0234 107.547 14.8672 107.547 15.7969V17.2031H97.4688V14.9531H104.23V14.6953C104.23 14.2266 104.145 13.8086 103.973 13.4414C103.809 13.0664 103.559 12.7695 103.223 12.5508C102.887 12.332 102.457 12.2227 101.934 12.2227C101.488 12.2227 101.105 12.3203 100.785 12.5156C100.465 12.7109 100.203 12.9844 100 13.3359C99.8047 13.6875 99.6562 14.1016 99.5547 14.5781C99.4609 15.0469 99.4141 15.5625 99.4141 16.125V16.5938C99.4141 17.1016 99.4844 17.5703 99.625 18C99.7734 18.4297 99.9805 18.8008 100.246 19.1133C100.52 19.4258 100.848 19.668 101.23 19.8398C101.621 20.0117 102.062 20.0977 102.555 20.0977C103.164 20.0977 103.73 19.9805 104.254 19.7461C104.785 19.5039 105.242 19.1406 105.625 18.6562L107.266 20.4375C107 20.8203 106.637 21.1875 106.176 21.5391C105.723 21.8906 105.176 22.1797 104.535 22.4062C103.895 22.625 103.164 22.7344 102.344 22.7344ZM112.188 9.82031L114.285 13.6758L116.441 9.82031H120.039L116.453 16.0195L120.203 22.5H116.594L114.309 18.4219L112.023 22.5H108.414L112.164 16.0195L108.578 9.82031H112.188ZM125.055 12.2578V27.375H121.68V9.82031H124.809L125.055 12.2578ZM133.082 16.0195V16.2656C133.082 17.1875 132.973 18.043 132.754 18.832C132.543 19.6211 132.23 20.3086 131.816 20.8945C131.402 21.4727 130.887 21.9258 130.27 22.2539C129.66 22.5742 128.957 22.7344 128.16 22.7344C127.387 22.7344 126.715 22.5781 126.145 22.2656C125.574 21.9531 125.094 21.5156 124.703 20.9531C124.32 20.3828 124.012 19.7227 123.777 18.9727C123.543 18.2227 123.363 17.418 123.238 16.5586V15.9141C123.363 14.9922 123.543 14.1484 123.777 13.3828C124.012 12.6094 124.32 11.9414 124.703 11.3789C125.094 10.8086 125.57 10.3672 126.133 10.0547C126.703 9.74219 127.371 9.58594 128.137 9.58594C128.941 9.58594 129.648 9.73828 130.258 10.043C130.875 10.3477 131.391 10.7852 131.805 11.3555C132.227 11.9258 132.543 12.6055 132.754 13.3945C132.973 14.1836 133.082 15.0586 133.082 16.0195ZM129.695 16.2656V16.0195C129.695 15.4805 129.648 14.9844 129.555 14.5312C129.469 14.0703 129.328 13.668 129.133 13.3242C128.945 12.9805 128.695 12.7148 128.383 12.5273C128.078 12.332 127.707 12.2344 127.27 12.2344C126.809 12.2344 126.414 12.3086 126.086 12.457C125.766 12.6055 125.504 12.8203 125.301 13.1016C125.098 13.3828 124.945 13.7188 124.844 14.1094C124.742 14.5 124.68 14.9414 124.656 15.4336V17.0625C124.695 17.6406 124.805 18.1602 124.984 18.6211C125.164 19.0742 125.441 19.4336 125.816 19.6992C126.191 19.9648 126.684 20.0977 127.293 20.0977C127.738 20.0977 128.113 20 128.418 19.8047C128.723 19.6016 128.969 19.3242 129.156 18.9727C129.352 18.6211 129.488 18.2148 129.566 17.7539C129.652 17.293 129.695 16.7969 129.695 16.2656ZM138.742 4.5V22.5H135.355V4.5H138.742ZM140.992 16.2891V16.043C140.992 15.1133 141.125 14.2578 141.391 13.4766C141.656 12.6875 142.043 12.0039 142.551 11.4258C143.059 10.8477 143.684 10.3984 144.426 10.0781C145.168 9.75 146.02 9.58594 146.98 9.58594C147.941 9.58594 148.797 9.75 149.547 10.0781C150.297 10.3984 150.926 10.8477 151.434 11.4258C151.949 12.0039 152.34 12.6875 152.605 13.4766C152.871 14.2578 153.004 15.1133 153.004 16.043V16.2891C153.004 17.2109 152.871 18.0664 152.605 18.8555C152.34 19.6367 151.949 20.3203 151.434 20.9062C150.926 21.4844 150.301 21.9336 149.559 22.2539C148.816 22.5742 147.965 22.7344 147.004 22.7344C146.043 22.7344 145.188 22.5742 144.438 22.2539C143.695 21.9336 143.066 21.4844 142.551 20.9062C142.043 20.3203 141.656 19.6367 141.391 18.8555C141.125 18.0664 140.992 17.2109 140.992 16.2891ZM144.367 16.043V16.2891C144.367 16.8203 144.414 17.3164 144.508 17.7773C144.602 18.2383 144.75 18.6445 144.953 18.9961C145.164 19.3398 145.438 19.6094 145.773 19.8047C146.109 20 146.52 20.0977 147.004 20.0977C147.473 20.0977 147.875 20 148.211 19.8047C148.547 19.6094 148.816 19.3398 149.02 18.9961C149.223 18.6445 149.371 18.2383 149.465 17.7773C149.566 17.3164 149.617 16.8203 149.617 16.2891V16.043C149.617 15.5273 149.566 15.043 149.465 14.5898C149.371 14.1289 149.219 13.7227 149.008 13.3711C148.805 13.0117 148.535 12.7305 148.199 12.5273C147.863 12.3242 147.457 12.2227 146.98 12.2227C146.504 12.2227 146.098 12.3242 145.762 12.5273C145.434 12.7305 145.164 13.0117 144.953 13.3711C144.75 13.7227 144.602 14.1289 144.508 14.5898C144.414 15.043 144.367 15.5273 144.367 16.043ZM158.453 12.5859V22.5H155.078V9.82031H158.254L158.453 12.5859ZM162.273 9.73828L162.215 12.8672C162.051 12.8438 161.852 12.8242 161.617 12.8086C161.391 12.7852 161.184 12.7734 160.996 12.7734C160.52 12.7734 160.105 12.8359 159.754 12.9609C159.41 13.0781 159.121 13.2539 158.887 13.4883C158.66 13.7227 158.488 14.0078 158.371 14.3438C158.262 14.6797 158.199 15.0625 158.184 15.4922L157.504 15.2812C157.504 14.4609 157.586 13.707 157.75 13.0195C157.914 12.3242 158.152 11.7188 158.465 11.2031C158.785 10.6875 159.176 10.2891 159.637 10.0078C160.098 9.72656 160.625 9.58594 161.219 9.58594C161.406 9.58594 161.598 9.60156 161.793 9.63281C161.988 9.65625 162.148 9.69141 162.273 9.73828ZM169.469 22.7344C168.484 22.7344 167.602 22.5781 166.82 22.2656C166.039 21.9453 165.375 21.5039 164.828 20.9414C164.289 20.3789 163.875 19.7266 163.586 18.9844C163.297 18.2344 163.152 17.4375 163.152 16.5938V16.125C163.152 15.1641 163.289 14.2852 163.562 13.4883C163.836 12.6914 164.227 12 164.734 11.4141C165.25 10.8281 165.875 10.3789 166.609 10.0664C167.344 9.74609 168.172 9.58594 169.094 9.58594C169.992 9.58594 170.789 9.73438 171.484 10.0312C172.18 10.3281 172.762 10.75 173.23 11.2969C173.707 11.8438 174.066 12.5 174.309 13.2656C174.551 14.0234 174.672 14.8672 174.672 15.7969V17.2031H164.594V14.9531H171.355V14.6953C171.355 14.2266 171.27 13.8086 171.098 13.4414C170.934 13.0664 170.684 12.7695 170.348 12.5508C170.012 12.332 169.582 12.2227 169.059 12.2227C168.613 12.2227 168.23 12.3203 167.91 12.5156C167.59 12.7109 167.328 12.9844 167.125 13.3359C166.93 13.6875 166.781 14.1016 166.68 14.5781C166.586 15.0469 166.539 15.5625 166.539 16.125V16.5938C166.539 17.1016 166.609 17.5703 166.75 18C166.898 18.4297 167.105 18.8008 167.371 19.1133C167.645 19.4258 167.973 19.668 168.355 19.8398C168.746 20.0117 169.188 20.0977 169.68 20.0977C170.289 20.0977 170.855 19.9805 171.379 19.7461C171.91 19.5039 172.367 19.1406 172.75 18.6562L174.391 20.4375C174.125 20.8203 173.762 21.1875 173.301 21.5391C172.848 21.8906 172.301 22.1797 171.66 22.4062C171.02 22.625 170.289 22.7344 169.469 22.7344ZM179.969 12.5859V22.5H176.594V9.82031H179.77L179.969 12.5859ZM183.789 9.73828L183.73 12.8672C183.566 12.8438 183.367 12.8242 183.133 12.8086C182.906 12.7852 182.699 12.7734 182.512 12.7734C182.035 12.7734 181.621 12.8359 181.27 12.9609C180.926 13.0781 180.637 13.2539 180.402 13.4883C180.176 13.7227 180.004 14.0078 179.887 14.3438C179.777 14.6797 179.715 15.0625 179.699 15.4922L179.02 15.2812C179.02 14.4609 179.102 13.707 179.266 13.0195C179.43 12.3242 179.668 11.7188 179.98 11.2031C180.301 10.6875 180.691 10.2891 181.152 10.0078C181.613 9.72656 182.141 9.58594 182.734 9.58594C182.922 9.58594 183.113 9.60156 183.309 9.63281C183.504 9.65625 183.664 9.69141 183.789 9.73828Z" fill="white"/>
<path d="M154.564 35.416V32.1523C154.564 31.9023 154.514 31.6855 154.412 31.502C154.314 31.3145 154.166 31.1699 153.967 31.0684C153.768 30.9668 153.521 30.916 153.229 30.916C152.955 30.916 152.715 30.9629 152.508 31.0566C152.305 31.1504 152.145 31.2734 152.027 31.4258C151.914 31.5781 151.857 31.7422 151.857 31.918H150.773C150.773 31.6914 150.832 31.4668 150.949 31.2441C151.066 31.0215 151.234 30.8203 151.453 30.6406C151.676 30.457 151.941 30.3125 152.25 30.207C152.562 30.0977 152.91 30.043 153.293 30.043C153.754 30.043 154.16 30.1211 154.512 30.2773C154.867 30.4336 155.145 30.6699 155.344 30.9863C155.547 31.2988 155.648 31.6914 155.648 32.1641V35.1172C155.648 35.3281 155.666 35.5527 155.701 35.791C155.74 36.0293 155.797 36.2344 155.871 36.4062V36.5H154.74C154.686 36.375 154.643 36.209 154.611 36.002C154.58 35.791 154.564 35.5957 154.564 35.416ZM154.752 32.6562L154.764 33.418H153.668C153.359 33.418 153.084 33.4434 152.842 33.4941C152.6 33.541 152.396 33.6133 152.232 33.7109C152.068 33.8086 151.943 33.9316 151.857 34.0801C151.771 34.2246 151.729 34.3945 151.729 34.5898C151.729 34.7891 151.773 34.9707 151.863 35.1348C151.953 35.2988 152.088 35.4297 152.268 35.5273C152.451 35.6211 152.676 35.668 152.941 35.668C153.273 35.668 153.566 35.5977 153.82 35.457C154.074 35.3164 154.275 35.1445 154.424 34.9414C154.576 34.7383 154.658 34.541 154.67 34.3496L155.133 34.8711C155.105 35.0352 155.031 35.2168 154.91 35.416C154.789 35.6152 154.627 35.8066 154.424 35.9902C154.225 36.1699 153.986 36.3203 153.709 36.4414C153.436 36.5586 153.127 36.6172 152.783 36.6172C152.354 36.6172 151.977 36.5332 151.652 36.3652C151.332 36.1973 151.082 35.9727 150.902 35.6914C150.727 35.4062 150.639 35.0879 150.639 34.7363C150.639 34.3965 150.705 34.0977 150.838 33.8398C150.971 33.5781 151.162 33.3613 151.412 33.1895C151.662 33.0137 151.963 32.8809 152.314 32.791C152.666 32.7012 153.059 32.6562 153.492 32.6562H154.752ZM161.35 35.2695V27.5H162.439V36.5H161.443L161.35 35.2695ZM157.084 33.4004V33.2773C157.084 32.793 157.143 32.3535 157.26 31.959C157.381 31.5605 157.551 31.2188 157.77 30.9336C157.992 30.6484 158.256 30.4297 158.561 30.2773C158.869 30.1211 159.213 30.043 159.592 30.043C159.99 30.043 160.338 30.1133 160.635 30.2539C160.936 30.3906 161.189 30.5918 161.396 30.8574C161.607 31.1191 161.773 31.4355 161.895 31.8066C162.016 32.1777 162.1 32.5977 162.146 33.0664V33.6055C162.104 34.0703 162.02 34.4883 161.895 34.8594C161.773 35.2305 161.607 35.5469 161.396 35.8086C161.189 36.0703 160.936 36.2715 160.635 36.4121C160.334 36.5488 159.982 36.6172 159.58 36.6172C159.209 36.6172 158.869 36.5371 158.561 36.377C158.256 36.2168 157.992 35.9922 157.77 35.7031C157.551 35.4141 157.381 35.0742 157.26 34.6836C157.143 34.2891 157.084 33.8613 157.084 33.4004ZM158.174 33.2773V33.4004C158.174 33.7168 158.205 34.0137 158.268 34.291C158.334 34.5684 158.436 34.8125 158.572 35.0234C158.709 35.2344 158.883 35.4004 159.094 35.5215C159.305 35.6387 159.557 35.6973 159.85 35.6973C160.209 35.6973 160.504 35.6211 160.734 35.4688C160.969 35.3164 161.156 35.1152 161.297 34.8652C161.438 34.6152 161.547 34.3438 161.625 34.0508V32.6387C161.578 32.4238 161.51 32.2168 161.42 32.0176C161.334 31.8145 161.221 31.6348 161.08 31.4785C160.943 31.3184 160.773 31.1914 160.57 31.0977C160.371 31.0039 160.135 30.957 159.861 30.957C159.564 30.957 159.309 31.0195 159.094 31.1445C158.883 31.2656 158.709 31.4336 158.572 31.6484C158.436 31.8594 158.334 32.1055 158.268 32.3867C158.205 32.6641 158.174 32.9609 158.174 33.2773ZM165.205 31.4199V36.5H164.115V30.1602H165.146L165.205 31.4199ZM164.982 33.0898L164.479 33.0723C164.482 32.6387 164.539 32.2383 164.648 31.8711C164.758 31.5 164.92 31.1777 165.135 30.9043C165.35 30.6309 165.617 30.4199 165.938 30.2715C166.258 30.1191 166.629 30.043 167.051 30.043C167.348 30.043 167.621 30.0859 167.871 30.1719C168.121 30.2539 168.338 30.3848 168.521 30.5645C168.705 30.7441 168.848 30.9746 168.949 31.2559C169.051 31.5371 169.102 31.877 169.102 32.2754V36.5H168.018V32.3281C168.018 31.9961 167.961 31.7305 167.848 31.5312C167.738 31.332 167.582 31.1875 167.379 31.0977C167.176 31.0039 166.938 30.957 166.664 30.957C166.344 30.957 166.076 31.0137 165.861 31.127C165.646 31.2402 165.475 31.3965 165.346 31.5957C165.217 31.7949 165.123 32.0234 165.064 32.2812C165.01 32.5352 164.982 32.8047 164.982 33.0898ZM169.09 32.4922L168.363 32.7148C168.367 32.3672 168.424 32.0332 168.533 31.7129C168.646 31.3926 168.809 31.1074 169.02 30.8574C169.234 30.6074 169.498 30.4102 169.811 30.2656C170.123 30.1172 170.48 30.043 170.883 30.043C171.223 30.043 171.523 30.0879 171.785 30.1777C172.051 30.2676 172.273 30.4062 172.453 30.5938C172.637 30.7773 172.775 31.0137 172.869 31.3027C172.963 31.5918 173.01 31.9355 173.01 32.334V36.5H171.92V32.3223C171.92 31.9668 171.863 31.6914 171.75 31.4961C171.641 31.2969 171.484 31.1582 171.281 31.0801C171.082 30.998 170.844 30.957 170.566 30.957C170.328 30.957 170.117 30.998 169.934 31.0801C169.75 31.1621 169.596 31.2754 169.471 31.4199C169.346 31.5605 169.25 31.7227 169.184 31.9062C169.121 32.0898 169.09 32.2852 169.09 32.4922ZM175.828 30.1602V36.5H174.738V30.1602H175.828ZM174.656 28.4785C174.656 28.3027 174.709 28.1543 174.814 28.0332C174.924 27.9121 175.084 27.8516 175.295 27.8516C175.502 27.8516 175.66 27.9121 175.77 28.0332C175.883 28.1543 175.939 28.3027 175.939 28.4785C175.939 28.6465 175.883 28.791 175.77 28.9121C175.66 29.0293 175.502 29.0879 175.295 29.0879C175.084 29.0879 174.924 29.0293 174.814 28.9121C174.709 28.791 174.656 28.6465 174.656 28.4785ZM178.652 31.5137V36.5H177.568V30.1602H178.594L178.652 31.5137ZM178.395 33.0898L177.943 33.0723C177.947 32.6387 178.012 32.2383 178.137 31.8711C178.262 31.5 178.438 31.1777 178.664 30.9043C178.891 30.6309 179.16 30.4199 179.473 30.2715C179.789 30.1191 180.139 30.043 180.521 30.043C180.834 30.043 181.115 30.0859 181.365 30.1719C181.615 30.2539 181.828 30.3867 182.004 30.5703C182.184 30.7539 182.32 30.9922 182.414 31.2852C182.508 31.5742 182.555 31.9277 182.555 32.3457V36.5H181.465V32.334C181.465 32.002 181.416 31.7363 181.318 31.5371C181.221 31.334 181.078 31.1875 180.891 31.0977C180.703 31.0039 180.473 30.957 180.199 30.957C179.93 30.957 179.684 31.0137 179.461 31.127C179.242 31.2402 179.053 31.3965 178.893 31.5957C178.736 31.7949 178.613 32.0234 178.523 32.2812C178.438 32.5352 178.395 32.8047 178.395 33.0898Z" fill="#82F3FF"/>
<path d="M15 0.5L27.9904 8V23L15 30.5L2.00962 23V8L15 0.5Z" fill="#065E7C"/>
</g>
<defs>
<clipPath id="clip0_49_2003">
<rect width="197" height="39" fill="white" transform="translate(0 0.5)"/>
</clipPath>
</defs>
</svg>
