<svg width="182" height="31" viewBox="0 0 182 31" fill="none" xmlns="http://www.w3.org/2000/svg">
<path d="M43.6133 22.7443H40.2148V8.93958C40.2148 7.97864 40.4023 7.17004 40.7773 6.51379C41.1602 5.84973 41.6953 5.34973 42.3828 5.01379C43.0781 4.67004 43.9023 4.49817 44.8555 4.49817C45.168 4.49817 45.4688 4.52161 45.7578 4.56848C46.0469 4.60754 46.3281 4.65833 46.6016 4.72083L46.5664 7.26379C46.418 7.22473 46.2617 7.19739 46.0977 7.18176C45.9336 7.16614 45.7422 7.15833 45.5234 7.15833C45.1172 7.15833 44.7695 7.22864 44.4805 7.36926C44.1992 7.50208 43.9844 7.70129 43.8359 7.96692C43.6875 8.23254 43.6133 8.55676 43.6133 8.93958V22.7443ZM46.1445 10.0646V12.4552H38.3281V10.0646H46.1445ZM47.375 16.5333V16.2872C47.375 15.3575 47.5078 14.5021 47.7734 13.7208C48.0391 12.9318 48.4258 12.2482 48.9336 11.67C49.4414 11.0919 50.0664 10.6427 50.8086 10.3224C51.5508 9.99426 52.4023 9.8302 53.3633 9.8302C54.3242 9.8302 55.1797 9.99426 55.9297 10.3224C56.6797 10.6427 57.3086 11.0919 57.8164 11.67C58.332 12.2482 58.7227 12.9318 58.9883 13.7208C59.2539 14.5021 59.3867 15.3575 59.3867 16.2872V16.5333C59.3867 17.4552 59.2539 18.3107 58.9883 19.0997C58.7227 19.881 58.332 20.5646 57.8164 21.1505C57.3086 21.7286 56.6836 22.1779 55.9414 22.4982C55.1992 22.8185 54.3477 22.9786 53.3867 22.9786C52.4258 22.9786 51.5703 22.8185 50.8203 22.4982C50.0781 22.1779 49.4492 21.7286 48.9336 21.1505C48.4258 20.5646 48.0391 19.881 47.7734 19.0997C47.5078 18.3107 47.375 17.4552 47.375 16.5333ZM50.75 16.2872V16.5333C50.75 17.0646 50.7969 17.5607 50.8906 18.0216C50.9844 18.4825 51.1328 18.8888 51.3359 19.2404C51.5469 19.5841 51.8203 19.8536 52.1562 20.049C52.4922 20.2443 52.9023 20.3419 53.3867 20.3419C53.8555 20.3419 54.2578 20.2443 54.5938 20.049C54.9297 19.8536 55.1992 19.5841 55.4023 19.2404C55.6055 18.8888 55.7539 18.4825 55.8477 18.0216C55.9492 17.5607 56 17.0646 56 16.5333V16.2872C56 15.7716 55.9492 15.2872 55.8477 14.8341C55.7539 14.3732 55.6016 13.9669 55.3906 13.6154C55.1875 13.256 54.918 12.9747 54.582 12.7716C54.2461 12.5685 53.8398 12.4669 53.3633 12.4669C52.8867 12.4669 52.4805 12.5685 52.1445 12.7716C51.8164 12.9747 51.5469 13.256 51.3359 13.6154C51.1328 13.9669 50.9844 14.3732 50.8906 14.8341C50.7969 15.2872 50.75 15.7716 50.75 16.2872ZM60.9219 16.5333V16.2872C60.9219 15.3575 61.0547 14.5021 61.3203 13.7208C61.5859 12.9318 61.9727 12.2482 62.4805 11.67C62.9883 11.0919 63.6133 10.6427 64.3555 10.3224C65.0977 9.99426 65.9492 9.8302 66.9102 9.8302C67.8711 9.8302 68.7266 9.99426 69.4766 10.3224C70.2266 10.6427 70.8555 11.0919 71.3633 11.67C71.8789 12.2482 72.2695 12.9318 72.5352 13.7208C72.8008 14.5021 72.9336 15.3575 72.9336 16.2872V16.5333C72.9336 17.4552 72.8008 18.3107 72.5352 19.0997C72.2695 19.881 71.8789 20.5646 71.3633 21.1505C70.8555 21.7286 70.2305 22.1779 69.4883 22.4982C68.7461 22.8185 67.8945 22.9786 66.9336 22.9786C65.9727 22.9786 65.1172 22.8185 64.3672 22.4982C63.625 22.1779 62.9961 21.7286 62.4805 21.1505C61.9727 20.5646 61.5859 19.881 61.3203 19.0997C61.0547 18.3107 60.9219 17.4552 60.9219 16.5333ZM64.2969 16.2872V16.5333C64.2969 17.0646 64.3438 17.5607 64.4375 18.0216C64.5312 18.4825 64.6797 18.8888 64.8828 19.2404C65.0938 19.5841 65.3672 19.8536 65.7031 20.049C66.0391 20.2443 66.4492 20.3419 66.9336 20.3419C67.4023 20.3419 67.8047 20.2443 68.1406 20.049C68.4766 19.8536 68.7461 19.5841 68.9492 19.2404C69.1523 18.8888 69.3008 18.4825 69.3945 18.0216C69.4961 17.5607 69.5469 17.0646 69.5469 16.5333V16.2872C69.5469 15.7716 69.4961 15.2872 69.3945 14.8341C69.3008 14.3732 69.1484 13.9669 68.9375 13.6154C68.7344 13.256 68.4648 12.9747 68.1289 12.7716C67.793 12.5685 67.3867 12.4669 66.9102 12.4669C66.4336 12.4669 66.0273 12.5685 65.6914 12.7716C65.3633 12.9747 65.0938 13.256 64.8828 13.6154C64.6797 13.9669 64.5312 14.3732 64.4375 14.8341C64.3438 15.2872 64.2969 15.7716 64.2969 16.2872ZM82.4961 19.9786V4.74426H85.8945V22.7443H82.8359L82.4961 19.9786ZM74.4805 16.5568V16.3107C74.4805 15.3419 74.5898 14.463 74.8086 13.674C75.0273 12.8771 75.3477 12.1935 75.7695 11.6232C76.1914 11.0529 76.7109 10.6115 77.3281 10.299C77.9453 9.98645 78.6484 9.8302 79.4375 9.8302C80.1797 9.8302 80.8281 9.98645 81.3828 10.299C81.9453 10.6115 82.4219 11.0568 82.8125 11.6349C83.2109 12.2052 83.5312 12.881 83.7734 13.6622C84.0156 14.4357 84.1914 15.2833 84.3008 16.2052V16.7443C84.1914 17.6271 84.0156 18.4474 83.7734 19.2052C83.5312 19.963 83.2109 20.6271 82.8125 21.1974C82.4219 21.7599 81.9453 22.1974 81.3828 22.5099C80.8203 22.8224 80.1641 22.9786 79.4141 22.9786C78.625 22.9786 77.9219 22.8185 77.3047 22.4982C76.6953 22.1779 76.1797 21.7286 75.7578 21.1505C75.3438 20.5724 75.0273 19.8927 74.8086 19.1115C74.5898 18.3302 74.4805 17.4786 74.4805 16.5568ZM77.8555 16.3107V16.5568C77.8555 17.0802 77.8945 17.5685 77.9727 18.0216C78.0586 18.4747 78.1953 18.8771 78.3828 19.2286C78.5781 19.5724 78.8281 19.8419 79.1328 20.0372C79.4453 20.2247 79.8242 20.3185 80.2695 20.3185C80.8477 20.3185 81.3242 20.1896 81.6992 19.9318C82.0742 19.6661 82.3594 19.3029 82.5547 18.8419C82.7578 18.381 82.875 17.8497 82.9062 17.2482V15.713C82.8828 15.2208 82.8125 14.7794 82.6953 14.3888C82.5859 13.9904 82.4219 13.6505 82.2031 13.3693C81.9922 13.088 81.7266 12.8693 81.4062 12.713C81.0938 12.5568 80.7227 12.4786 80.293 12.4786C79.8555 12.4786 79.4805 12.5802 79.168 12.7833C78.8555 12.9786 78.6016 13.2482 78.4062 13.5919C78.2188 13.9357 78.0781 14.3419 77.9844 14.8107C77.8984 15.2716 77.8555 15.7716 77.8555 16.3107ZM100.344 22.9786C99.3594 22.9786 98.4766 22.8224 97.6953 22.5099C96.9141 22.1896 96.25 21.7482 95.7031 21.1857C95.1641 20.6232 94.75 19.9708 94.4609 19.2286C94.1719 18.4786 94.0273 17.6818 94.0273 16.838V16.3693C94.0273 15.4083 94.1641 14.5294 94.4375 13.7325C94.7109 12.9357 95.1016 12.2443 95.6094 11.6583C96.125 11.0724 96.75 10.6232 97.4844 10.3107C98.2188 9.99036 99.0469 9.8302 99.9688 9.8302C100.867 9.8302 101.664 9.97864 102.359 10.2755C103.055 10.5724 103.637 10.9943 104.105 11.5411C104.582 12.088 104.941 12.7443 105.184 13.5099C105.426 14.2677 105.547 15.1115 105.547 16.0411V17.4474H95.4688V15.1974H102.23V14.9396C102.23 14.4708 102.145 14.0529 101.973 13.6857C101.809 13.3107 101.559 13.0138 101.223 12.795C100.887 12.5763 100.457 12.4669 99.9336 12.4669C99.4883 12.4669 99.1055 12.5646 98.7852 12.7599C98.4648 12.9552 98.2031 13.2286 98 13.5802C97.8047 13.9318 97.6562 14.3458 97.5547 14.8224C97.4609 15.2911 97.4141 15.8068 97.4141 16.3693V16.838C97.4141 17.3458 97.4844 17.8146 97.625 18.2443C97.7734 18.674 97.9805 19.045 98.2461 19.3575C98.5195 19.67 98.8477 19.9122 99.2305 20.0841C99.6211 20.256 100.062 20.3419 100.555 20.3419C101.164 20.3419 101.73 20.2247 102.254 19.9904C102.785 19.7482 103.242 19.3849 103.625 18.9005L105.266 20.6818C105 21.0646 104.637 21.4318 104.176 21.7833C103.723 22.1349 103.176 22.424 102.535 22.6505C101.895 22.8693 101.164 22.9786 100.344 22.9786ZM110.188 10.0646L112.285 13.92L114.441 10.0646H118.039L114.453 16.2638L118.203 22.7443H114.594L112.309 18.6661L110.023 22.7443H106.414L110.164 16.2638L106.578 10.0646H110.188ZM123.055 12.5021V27.6193H119.68V10.0646H122.809L123.055 12.5021ZM131.082 16.2638V16.5099C131.082 17.4318 130.973 18.2872 130.754 19.0763C130.543 19.8654 130.23 20.5529 129.816 21.1388C129.402 21.7169 128.887 22.17 128.27 22.4982C127.66 22.8185 126.957 22.9786 126.16 22.9786C125.387 22.9786 124.715 22.8224 124.145 22.5099C123.574 22.1974 123.094 21.7599 122.703 21.1974C122.32 20.6271 122.012 19.9669 121.777 19.2169C121.543 18.4669 121.363 17.6622 121.238 16.8029V16.1583C121.363 15.2365 121.543 14.3927 121.777 13.6271C122.012 12.8536 122.32 12.1857 122.703 11.6232C123.094 11.0529 123.57 10.6115 124.133 10.299C124.703 9.98645 125.371 9.8302 126.137 9.8302C126.941 9.8302 127.648 9.98254 128.258 10.2872C128.875 10.5919 129.391 11.0294 129.805 11.5997C130.227 12.17 130.543 12.8497 130.754 13.6388C130.973 14.4279 131.082 15.3029 131.082 16.2638ZM127.695 16.5099V16.2638C127.695 15.7247 127.648 15.2286 127.555 14.7755C127.469 14.3146 127.328 13.9122 127.133 13.5685C126.945 13.2247 126.695 12.9591 126.383 12.7716C126.078 12.5763 125.707 12.4786 125.27 12.4786C124.809 12.4786 124.414 12.5529 124.086 12.7013C123.766 12.8497 123.504 13.0646 123.301 13.3458C123.098 13.6271 122.945 13.963 122.844 14.3536C122.742 14.7443 122.68 15.1857 122.656 15.6779V17.3068C122.695 17.8849 122.805 18.4044 122.984 18.8654C123.164 19.3185 123.441 19.6779 123.816 19.9435C124.191 20.2091 124.684 20.3419 125.293 20.3419C125.738 20.3419 126.113 20.2443 126.418 20.049C126.723 19.8458 126.969 19.5685 127.156 19.2169C127.352 18.8654 127.488 18.4591 127.566 17.9982C127.652 17.5372 127.695 17.0411 127.695 16.5099ZM136.742 4.74426V22.7443H133.355V4.74426H136.742ZM138.992 16.5333V16.2872C138.992 15.3575 139.125 14.5021 139.391 13.7208C139.656 12.9318 140.043 12.2482 140.551 11.67C141.059 11.0919 141.684 10.6427 142.426 10.3224C143.168 9.99426 144.02 9.8302 144.98 9.8302C145.941 9.8302 146.797 9.99426 147.547 10.3224C148.297 10.6427 148.926 11.0919 149.434 11.67C149.949 12.2482 150.34 12.9318 150.605 13.7208C150.871 14.5021 151.004 15.3575 151.004 16.2872V16.5333C151.004 17.4552 150.871 18.3107 150.605 19.0997C150.34 19.881 149.949 20.5646 149.434 21.1505C148.926 21.7286 148.301 22.1779 147.559 22.4982C146.816 22.8185 145.965 22.9786 145.004 22.9786C144.043 22.9786 143.188 22.8185 142.438 22.4982C141.695 22.1779 141.066 21.7286 140.551 21.1505C140.043 20.5646 139.656 19.881 139.391 19.0997C139.125 18.3107 138.992 17.4552 138.992 16.5333ZM142.367 16.2872V16.5333C142.367 17.0646 142.414 17.5607 142.508 18.0216C142.602 18.4825 142.75 18.8888 142.953 19.2404C143.164 19.5841 143.438 19.8536 143.773 20.049C144.109 20.2443 144.52 20.3419 145.004 20.3419C145.473 20.3419 145.875 20.2443 146.211 20.049C146.547 19.8536 146.816 19.5841 147.02 19.2404C147.223 18.8888 147.371 18.4825 147.465 18.0216C147.566 17.5607 147.617 17.0646 147.617 16.5333V16.2872C147.617 15.7716 147.566 15.2872 147.465 14.8341C147.371 14.3732 147.219 13.9669 147.008 13.6154C146.805 13.256 146.535 12.9747 146.199 12.7716C145.863 12.5685 145.457 12.4669 144.98 12.4669C144.504 12.4669 144.098 12.5685 143.762 12.7716C143.434 12.9747 143.164 13.256 142.953 13.6154C142.75 13.9669 142.602 14.3732 142.508 14.8341C142.414 15.2872 142.367 15.7716 142.367 16.2872ZM156.453 12.8302V22.7443H153.078V10.0646H156.254L156.453 12.8302ZM160.273 9.98254L160.215 13.1115C160.051 13.088 159.852 13.0685 159.617 13.0529C159.391 13.0294 159.184 13.0177 158.996 13.0177C158.52 13.0177 158.105 13.0802 157.754 13.2052C157.41 13.3224 157.121 13.4982 156.887 13.7325C156.66 13.9669 156.488 14.2521 156.371 14.588C156.262 14.924 156.199 15.3068 156.184 15.7365L155.504 15.5255C155.504 14.7052 155.586 13.9513 155.75 13.2638C155.914 12.5685 156.152 11.963 156.465 11.4474C156.785 10.9318 157.176 10.5333 157.637 10.2521C158.098 9.97083 158.625 9.8302 159.219 9.8302C159.406 9.8302 159.598 9.84583 159.793 9.87708C159.988 9.90051 160.148 9.93567 160.273 9.98254ZM167.469 22.9786C166.484 22.9786 165.602 22.8224 164.82 22.5099C164.039 22.1896 163.375 21.7482 162.828 21.1857C162.289 20.6232 161.875 19.9708 161.586 19.2286C161.297 18.4786 161.152 17.6818 161.152 16.838V16.3693C161.152 15.4083 161.289 14.5294 161.562 13.7325C161.836 12.9357 162.227 12.2443 162.734 11.6583C163.25 11.0724 163.875 10.6232 164.609 10.3107C165.344 9.99036 166.172 9.8302 167.094 9.8302C167.992 9.8302 168.789 9.97864 169.484 10.2755C170.18 10.5724 170.762 10.9943 171.23 11.5411C171.707 12.088 172.066 12.7443 172.309 13.5099C172.551 14.2677 172.672 15.1115 172.672 16.0411V17.4474H162.594V15.1974H169.355V14.9396C169.355 14.4708 169.27 14.0529 169.098 13.6857C168.934 13.3107 168.684 13.0138 168.348 12.795C168.012 12.5763 167.582 12.4669 167.059 12.4669C166.613 12.4669 166.23 12.5646 165.91 12.7599C165.59 12.9552 165.328 13.2286 165.125 13.5802C164.93 13.9318 164.781 14.3458 164.68 14.8224C164.586 15.2911 164.539 15.8068 164.539 16.3693V16.838C164.539 17.3458 164.609 17.8146 164.75 18.2443C164.898 18.674 165.105 19.045 165.371 19.3575C165.645 19.67 165.973 19.9122 166.355 20.0841C166.746 20.256 167.188 20.3419 167.68 20.3419C168.289 20.3419 168.855 20.2247 169.379 19.9904C169.91 19.7482 170.367 19.3849 170.75 18.9005L172.391 20.6818C172.125 21.0646 171.762 21.4318 171.301 21.7833C170.848 22.1349 170.301 22.424 169.66 22.6505C169.02 22.8693 168.289 22.9786 167.469 22.9786ZM177.969 12.8302V22.7443H174.594V10.0646H177.77L177.969 12.8302ZM181.789 9.98254L181.73 13.1115C181.566 13.088 181.367 13.0685 181.133 13.0529C180.906 13.0294 180.699 13.0177 180.512 13.0177C180.035 13.0177 179.621 13.0802 179.27 13.2052C178.926 13.3224 178.637 13.4982 178.402 13.7325C178.176 13.9669 178.004 14.2521 177.887 14.588C177.777 14.924 177.715 15.3068 177.699 15.7365L177.02 15.5255C177.02 14.7052 177.102 13.9513 177.266 13.2638C177.43 12.5685 177.668 11.963 177.98 11.4474C178.301 10.9318 178.691 10.5333 179.152 10.2521C179.613 9.97083 180.141 9.8302 180.734 9.8302C180.922 9.8302 181.113 9.84583 181.309 9.87708C181.504 9.90051 181.664 9.93567 181.789 9.98254Z" fill="#4D585E"/>
<path d="M13 0.744263L25.9904 8.24426V23.2443L13 30.7443L0.00961876 23.2443V8.24426L13 0.744263Z" fill="#4D585E"/>
</svg>
