<svg width="200" height="26" viewBox="0 0 200 26" fill="none" xmlns="http://www.w3.org/2000/svg">
<path d="M10.6933 0.5L21.351 6.65327V18.9598L10.6933 25.1131L0.0354824 18.9598V6.65327L10.6933 0.5Z" fill="#065E7C"/>
<path d="M35.9497 20.5H32.953V8.32721C32.953 7.47987 33.1184 6.76686 33.449 6.18819C33.7866 5.60263 34.2585 5.16174 34.8647 4.86551C35.4778 4.5624 36.2046 4.41084 37.0451 4.41084C37.3206 4.41084 37.5858 4.43151 37.8407 4.47284C38.0956 4.50729 38.3436 4.55206 38.5847 4.60718L38.5537 6.84953C38.4229 6.81509 38.2851 6.79098 38.1404 6.7772C37.9957 6.76342 37.827 6.75653 37.6341 6.75653C37.2758 6.75653 36.9693 6.81853 36.7144 6.94253C36.4664 7.05964 36.2769 7.23531 36.1461 7.46954C36.0152 7.70376 35.9497 7.98965 35.9497 8.32721V20.5ZM38.1817 9.31922V11.4272H31.2893V9.31922H38.1817ZM39.2667 15.0233V14.8063C39.2667 13.9865 39.3839 13.2322 39.6181 12.5433C39.8523 11.8475 40.1933 11.2447 40.6411 10.7349C41.0889 10.2251 41.64 9.82901 42.2944 9.54656C42.9489 9.25722 43.6998 9.11255 44.5471 9.11255C45.3945 9.11255 46.1488 9.25722 46.8102 9.54656C47.4715 9.82901 48.0261 10.2251 48.4738 10.7349C48.9285 11.2447 49.273 11.8475 49.5072 12.5433C49.7414 13.2322 49.8585 13.9865 49.8585 14.8063V15.0233C49.8585 15.8362 49.7414 16.5905 49.5072 17.2863C49.273 17.9752 48.9285 18.578 48.4738 19.0947C48.0261 19.6044 47.4749 20.0006 46.8205 20.283C46.166 20.5654 45.4151 20.7067 44.5678 20.7067C43.7205 20.7067 42.9661 20.5654 42.3048 20.283C41.6503 20.0006 41.0958 19.6044 40.6411 19.0947C40.1933 18.578 39.8523 17.9752 39.6181 17.2863C39.3839 16.5905 39.2667 15.8362 39.2667 15.0233ZM42.2428 14.8063V15.0233C42.2428 15.4917 42.2841 15.9292 42.3668 16.3356C42.4494 16.7421 42.5803 17.1003 42.7594 17.4103C42.9455 17.7134 43.1866 17.9511 43.4828 18.1233C43.779 18.2955 44.1407 18.3816 44.5678 18.3816C44.9811 18.3816 45.3359 18.2955 45.6321 18.1233C45.9284 17.9511 46.166 17.7134 46.3452 17.4103C46.5243 17.1003 46.6552 16.7421 46.7378 16.3356C46.8274 15.9292 46.8722 15.4917 46.8722 15.0233V14.8063C46.8722 14.3516 46.8274 13.9245 46.7378 13.5249C46.6552 13.1185 46.5208 12.7603 46.3348 12.4503C46.1557 12.1334 45.918 11.8854 45.6218 11.7062C45.3256 11.5271 44.9674 11.4376 44.5471 11.4376C44.1269 11.4376 43.7687 11.5271 43.4725 11.7062C43.1831 11.8854 42.9455 12.1334 42.7594 12.4503C42.5803 12.7603 42.4494 13.1185 42.3668 13.5249C42.2841 13.9245 42.2428 14.3516 42.2428 14.8063ZM51.2122 15.0233V14.8063C51.2122 13.9865 51.3293 13.2322 51.5635 12.5433C51.7978 11.8475 52.1388 11.2447 52.5865 10.7349C53.0343 10.2251 53.5854 9.82901 54.2399 9.54656C54.8943 9.25722 55.6452 9.11255 56.4926 9.11255C57.3399 9.11255 58.0943 9.25722 58.7556 9.54656C59.4169 9.82901 59.9715 10.2251 60.4193 10.7349C60.874 11.2447 61.2184 11.8475 61.4526 12.5433C61.6869 13.2322 61.804 13.9865 61.804 14.8063V15.0233C61.804 15.8362 61.6869 16.5905 61.4526 17.2863C61.2184 17.9752 60.874 18.578 60.4193 19.0947C59.9715 19.6044 59.4204 20.0006 58.7659 20.283C58.1115 20.5654 57.3606 20.7067 56.5133 20.7067C55.6659 20.7067 54.9116 20.5654 54.2502 20.283C53.5958 20.0006 53.0412 19.6044 52.5865 19.0947C52.1388 18.578 51.7978 17.9752 51.5635 17.2863C51.3293 16.5905 51.2122 15.8362 51.2122 15.0233ZM54.1882 14.8063V15.0233C54.1882 15.4917 54.2296 15.9292 54.3122 16.3356C54.3949 16.7421 54.5258 17.1003 54.7049 17.4103C54.8909 17.7134 55.132 17.9511 55.4282 18.1233C55.7245 18.2955 56.0861 18.3816 56.5133 18.3816C56.9266 18.3816 57.2814 18.2955 57.5776 18.1233C57.8738 17.9511 58.1115 17.7134 58.2906 17.4103C58.4697 17.1003 58.6006 16.7421 58.6833 16.3356C58.7728 15.9292 58.8176 15.4917 58.8176 15.0233V14.8063C58.8176 14.3516 58.7728 13.9245 58.6833 13.5249C58.6006 13.1185 58.4663 12.7603 58.2803 12.4503C58.1012 12.1334 57.8635 11.8854 57.5673 11.7062C57.271 11.5271 56.9128 11.4376 56.4926 11.4376C56.0724 11.4376 55.7141 11.5271 55.4179 11.7062C55.1286 11.8854 54.8909 12.1334 54.7049 12.4503C54.5258 12.7603 54.3949 13.1185 54.3122 13.5249C54.2296 13.9245 54.1882 14.3516 54.1882 14.8063ZM70.2361 18.0613V4.62784H73.2328V20.5H70.5357L70.2361 18.0613ZM63.168 15.0439V14.8269C63.168 13.9727 63.2644 13.1977 63.4573 12.5019C63.6502 11.7992 63.9327 11.1965 64.3047 10.6936C64.6767 10.1907 65.1348 9.80145 65.679 9.52589C66.2232 9.25033 66.8432 9.11255 67.539 9.11255C68.1935 9.11255 68.7653 9.25033 69.2544 9.52589C69.7504 9.80145 70.1706 10.1941 70.5151 10.7039C70.8664 11.2068 71.1488 11.8027 71.3624 12.4916C71.576 13.1736 71.731 13.921 71.8274 14.7339V15.2093C71.731 15.9877 71.576 16.7111 71.3624 17.3793C71.1488 18.0475 70.8664 18.6331 70.5151 19.136C70.1706 19.632 69.7504 20.0178 69.2544 20.2933C68.7584 20.5689 68.1797 20.7067 67.5184 20.7067C66.8226 20.7067 66.2026 20.5654 65.6583 20.283C65.121 20.0006 64.6663 19.6044 64.2943 19.0947C63.9292 18.5849 63.6502 17.9855 63.4573 17.2966C63.2644 16.6077 63.168 15.8568 63.168 15.0439ZM66.144 14.8269V15.0439C66.144 15.5055 66.1785 15.9361 66.2473 16.3356C66.3231 16.7352 66.4437 17.09 66.609 17.4C66.7812 17.7031 67.0017 17.9408 67.2704 18.113C67.5459 18.2783 67.88 18.361 68.2727 18.361C68.7825 18.361 69.2027 18.2473 69.5334 18.02C69.8641 17.7858 70.1155 17.4654 70.2877 17.059C70.4668 16.6525 70.5702 16.1841 70.5977 15.6536V14.2999C70.5771 13.8659 70.5151 13.4767 70.4117 13.1323C70.3153 12.7809 70.1706 12.4813 69.9777 12.2333C69.7917 11.9852 69.5575 11.7924 69.275 11.6546C68.9995 11.5168 68.6723 11.4479 68.2934 11.4479C67.9076 11.4479 67.5769 11.5375 67.3014 11.7166C67.0258 11.8888 66.8019 12.1265 66.6297 12.4296C66.4644 12.7327 66.3403 13.0909 66.2577 13.5043C66.1819 13.9107 66.144 14.3516 66.144 14.8269ZM85.9739 20.7067C85.1059 20.7067 84.3274 20.5689 83.6385 20.2933C82.9496 20.0109 82.3641 19.6217 81.8818 19.1257C81.4065 18.6296 81.0414 18.0544 80.7865 17.4C80.5316 16.7386 80.4042 16.036 80.4042 15.2919V14.8786C80.4042 14.0313 80.5247 13.2563 80.7658 12.5536C81.0069 11.8509 81.3514 11.2412 81.7992 10.7246C82.2538 10.2079 82.805 9.81178 83.4525 9.53622C84.1001 9.25378 84.8303 9.11255 85.6432 9.11255C86.4354 9.11255 87.1381 9.24344 87.7512 9.50522C88.3643 9.767 88.8776 10.139 89.2909 10.6212C89.7111 11.1035 90.028 11.6821 90.2416 12.3573C90.4551 13.0255 90.5619 13.7695 90.5619 14.5893V15.8293H81.6752V13.8453H87.6376V13.6179C87.6376 13.2046 87.5618 12.836 87.4102 12.5123C87.2656 12.1816 87.0451 11.9198 86.7489 11.7269C86.4527 11.534 86.0738 11.4376 85.6122 11.4376C85.2195 11.4376 84.882 11.5237 84.5995 11.6959C84.3171 11.8681 84.0863 12.1093 83.9072 12.4193C83.735 12.7293 83.6041 13.0944 83.5145 13.5146C83.4319 13.9279 83.3905 14.3826 83.3905 14.8786V15.2919C83.3905 15.7397 83.4525 16.1531 83.5765 16.532C83.7074 16.9109 83.89 17.2381 84.1242 17.5136C84.3653 17.7892 84.6546 18.0028 84.9922 18.1543C85.3366 18.3059 85.7259 18.3816 86.1599 18.3816C86.6972 18.3816 87.1967 18.2783 87.6582 18.0716C88.1267 17.8581 88.5297 17.5377 88.8672 17.1106L90.3139 18.6813C90.0797 19.0189 89.7594 19.3427 89.3529 19.6527C88.9534 19.9627 88.4711 20.2176 87.9062 20.4173C87.3413 20.6102 86.6972 20.7067 85.9739 20.7067ZM94.654 9.31922L96.5036 12.7189L98.405 9.31922H101.577L98.4153 14.7856L101.722 20.5H98.5393L96.5243 16.904L94.5093 20.5H91.3266L94.6333 14.7856L91.4713 9.31922H94.654ZM106 11.4686V24.7987H103.024V9.31922H105.783L106 11.4686ZM113.078 14.7856V15.0026C113.078 15.8155 112.982 16.5698 112.789 17.2656C112.603 17.9614 112.328 18.5676 111.962 19.0843C111.597 19.5941 111.143 19.9937 110.598 20.283C110.061 20.5654 109.441 20.7067 108.738 20.7067C108.056 20.7067 107.464 20.5689 106.961 20.2933C106.458 20.0178 106.035 19.632 105.69 19.136C105.353 18.6331 105.08 18.051 104.874 17.3896C104.667 16.7283 104.509 16.0187 104.398 15.2609V14.6926C104.509 13.8797 104.667 13.1357 104.874 12.4606C105.08 11.7786 105.353 11.1896 105.69 10.6936C106.035 10.1907 106.455 9.80145 106.951 9.52589C107.454 9.25033 108.043 9.11255 108.718 9.11255C109.427 9.11255 110.051 9.24689 110.588 9.51556C111.132 9.78423 111.587 10.17 111.952 10.6729C112.324 11.1758 112.603 11.7751 112.789 12.4709C112.982 13.1667 113.078 13.9383 113.078 14.7856ZM110.092 15.0026V14.7856C110.092 14.3103 110.051 13.8728 109.968 13.4733C109.892 13.0668 109.768 12.712 109.596 12.4089C109.431 12.1058 109.21 11.8716 108.935 11.7062C108.666 11.534 108.339 11.4479 107.953 11.4479C107.547 11.4479 107.199 11.5134 106.909 11.6442C106.627 11.7751 106.396 11.9646 106.217 12.2126C106.038 12.4606 105.904 12.7568 105.814 13.1013C105.725 13.4457 105.669 13.8349 105.649 14.2689V15.7053C105.683 16.2151 105.78 16.6732 105.938 17.0796C106.097 17.4792 106.341 17.7961 106.672 18.0303C107.002 18.2645 107.436 18.3816 107.974 18.3816C108.366 18.3816 108.697 18.2955 108.966 18.1233C109.234 17.9442 109.451 17.6996 109.617 17.3896C109.789 17.0796 109.91 16.7214 109.978 16.315C110.054 15.9085 110.092 15.4711 110.092 15.0026ZM118.07 4.62784V20.5H115.083V4.62784H118.07ZM120.054 15.0233V14.8063C120.054 13.9865 120.171 13.2322 120.405 12.5433C120.639 11.8475 120.98 11.2447 121.428 10.7349C121.876 10.2251 122.427 9.82901 123.081 9.54656C123.736 9.25722 124.487 9.11255 125.334 9.11255C126.181 9.11255 126.936 9.25722 127.597 9.54656C128.258 9.82901 128.813 10.2251 129.261 10.7349C129.715 11.2447 130.06 11.8475 130.294 12.5433C130.528 13.2322 130.645 13.9865 130.645 14.8063V15.0233C130.645 15.8362 130.528 16.5905 130.294 17.2863C130.06 17.9752 129.715 18.578 129.261 19.0947C128.813 19.6044 128.262 20.0006 127.607 20.283C126.953 20.5654 126.202 20.7067 125.355 20.7067C124.507 20.7067 123.753 20.5654 123.092 20.283C122.437 20.0006 121.883 19.6044 121.428 19.0947C120.98 18.578 120.639 17.9752 120.405 17.2863C120.171 16.5905 120.054 15.8362 120.054 15.0233ZM123.03 14.8063V15.0233C123.03 15.4917 123.071 15.9292 123.154 16.3356C123.236 16.7421 123.367 17.1003 123.546 17.4103C123.732 17.7134 123.973 17.9511 124.27 18.1233C124.566 18.2955 124.927 18.3816 125.355 18.3816C125.768 18.3816 126.123 18.2955 126.419 18.1233C126.715 17.9511 126.953 17.7134 127.132 17.4103C127.311 17.1003 127.442 16.7421 127.525 16.3356C127.614 15.9292 127.659 15.4917 127.659 15.0233V14.8063C127.659 14.3516 127.614 13.9245 127.525 13.5249C127.442 13.1185 127.308 12.7603 127.122 12.4503C126.943 12.1334 126.705 11.8854 126.409 11.7062C126.112 11.5271 125.754 11.4376 125.334 11.4376C124.914 11.4376 124.555 11.5271 124.259 11.7062C123.97 11.8854 123.732 12.1334 123.546 12.4503C123.367 12.7603 123.236 13.1185 123.154 13.5249C123.071 13.9245 123.03 14.3516 123.03 14.8063ZM135.45 11.7579V20.5H132.474V9.31922H135.275L135.45 11.7579ZM138.819 9.24689L138.767 12.0059C138.623 11.9852 138.447 11.968 138.24 11.9542C138.041 11.9336 137.858 11.9232 137.693 11.9232C137.272 11.9232 136.907 11.9784 136.597 12.0886C136.294 12.1919 136.039 12.3469 135.833 12.5536C135.633 12.7603 135.481 13.0117 135.378 13.3079C135.282 13.6042 135.226 13.9417 135.213 14.3206L134.613 14.1346C134.613 13.4113 134.686 12.7465 134.83 12.1403C134.975 11.5271 135.185 10.9932 135.461 10.5386C135.743 10.0839 136.088 9.73256 136.494 9.48456C136.9 9.23656 137.365 9.11255 137.889 9.11255C138.054 9.11255 138.223 9.12633 138.395 9.15389C138.568 9.17455 138.709 9.20555 138.819 9.24689ZM145.164 20.7067C144.296 20.7067 143.517 20.5689 142.828 20.2933C142.14 20.0109 141.554 19.6217 141.072 19.1257C140.596 18.6296 140.231 18.0544 139.976 17.4C139.722 16.7386 139.594 16.036 139.594 15.2919V14.8786C139.594 14.0313 139.715 13.2563 139.956 12.5536C140.197 11.8509 140.541 11.2412 140.989 10.7246C141.444 10.2079 141.995 9.81178 142.642 9.53622C143.29 9.25378 144.02 9.11255 144.833 9.11255C145.625 9.11255 146.328 9.24344 146.941 9.50522C147.554 9.767 148.067 10.139 148.481 10.6212C148.901 11.1035 149.218 11.6821 149.432 12.3573C149.645 13.0255 149.752 13.7695 149.752 14.5893V15.8293H140.865V13.8453H146.827V13.6179C146.827 13.2046 146.752 12.836 146.6 12.5123C146.455 12.1816 146.235 11.9198 145.939 11.7269C145.643 11.534 145.264 11.4376 144.802 11.4376C144.409 11.4376 144.072 11.5237 143.789 11.6959C143.507 11.8681 143.276 12.1093 143.097 12.4193C142.925 12.7293 142.794 13.0944 142.704 13.5146C142.622 13.9279 142.58 14.3826 142.58 14.8786V15.2919C142.58 15.7397 142.642 16.1531 142.766 16.532C142.897 16.9109 143.08 17.2381 143.314 17.5136C143.555 17.7892 143.845 18.0028 144.182 18.1543C144.527 18.3059 144.916 18.3816 145.35 18.3816C145.887 18.3816 146.387 18.2783 146.848 18.0716C147.317 17.8581 147.72 17.5377 148.057 17.1106L149.504 18.6813C149.27 19.0189 148.949 19.3427 148.543 19.6527C148.143 19.9627 147.661 20.2176 147.096 20.4173C146.531 20.6102 145.887 20.7067 145.164 20.7067ZM154.423 11.7579V20.5H151.447V9.31922H154.247L154.423 11.7579ZM157.791 9.24689L157.74 12.0059C157.595 11.9852 157.419 11.968 157.213 11.9542C157.013 11.9336 156.83 11.9232 156.665 11.9232C156.245 11.9232 155.88 11.9784 155.57 12.0886C155.266 12.1919 155.012 12.3469 154.805 12.5536C154.605 12.7603 154.454 13.0117 154.35 13.3079C154.254 13.6042 154.199 13.9417 154.185 14.3206L153.586 14.1346C153.586 13.4113 153.658 12.7465 153.803 12.1403C153.947 11.5271 154.157 10.9932 154.433 10.5386C154.715 10.0839 155.06 9.73256 155.466 9.48456C155.873 9.23656 156.338 9.11255 156.861 9.11255C157.027 9.11255 157.195 9.12633 157.368 9.15389C157.54 9.17455 157.681 9.20555 157.791 9.24689Z" fill="white"/>
<path d="M171.564 16.416V13.1523C171.564 12.9023 171.514 12.6855 171.412 12.502C171.314 12.3145 171.166 12.1699 170.967 12.0684C170.768 11.9668 170.521 11.916 170.229 11.916C169.955 11.916 169.715 11.9629 169.508 12.0566C169.305 12.1504 169.145 12.2734 169.027 12.4258C168.914 12.5781 168.857 12.7422 168.857 12.918H167.773C167.773 12.6914 167.832 12.4668 167.949 12.2441C168.066 12.0215 168.234 11.8203 168.453 11.6406C168.676 11.457 168.941 11.3125 169.25 11.207C169.562 11.0977 169.91 11.043 170.293 11.043C170.754 11.043 171.16 11.1211 171.512 11.2773C171.867 11.4336 172.145 11.6699 172.344 11.9863C172.547 12.2988 172.648 12.6914 172.648 13.1641V16.1172C172.648 16.3281 172.666 16.5527 172.701 16.791C172.74 17.0293 172.797 17.2344 172.871 17.4062V17.5H171.74C171.686 17.375 171.643 17.209 171.611 17.002C171.58 16.791 171.564 16.5957 171.564 16.416ZM171.752 13.6562L171.764 14.418H170.668C170.359 14.418 170.084 14.4434 169.842 14.4941C169.6 14.541 169.396 14.6133 169.232 14.7109C169.068 14.8086 168.943 14.9316 168.857 15.0801C168.771 15.2246 168.729 15.3945 168.729 15.5898C168.729 15.7891 168.773 15.9707 168.863 16.1348C168.953 16.2988 169.088 16.4297 169.268 16.5273C169.451 16.6211 169.676 16.668 169.941 16.668C170.273 16.668 170.566 16.5977 170.82 16.457C171.074 16.3164 171.275 16.1445 171.424 15.9414C171.576 15.7383 171.658 15.541 171.67 15.3496L172.133 15.8711C172.105 16.0352 172.031 16.2168 171.91 16.416C171.789 16.6152 171.627 16.8066 171.424 16.9902C171.225 17.1699 170.986 17.3203 170.709 17.4414C170.436 17.5586 170.127 17.6172 169.783 17.6172C169.354 17.6172 168.977 17.5332 168.652 17.3652C168.332 17.1973 168.082 16.9727 167.902 16.6914C167.727 16.4062 167.639 16.0879 167.639 15.7363C167.639 15.3965 167.705 15.0977 167.838 14.8398C167.971 14.5781 168.162 14.3613 168.412 14.1895C168.662 14.0137 168.963 13.8809 169.314 13.791C169.666 13.7012 170.059 13.6562 170.492 13.6562H171.752ZM178.35 16.2695V8.5H179.439V17.5H178.443L178.35 16.2695ZM174.084 14.4004V14.2773C174.084 13.793 174.143 13.3535 174.26 12.959C174.381 12.5605 174.551 12.2188 174.77 11.9336C174.992 11.6484 175.256 11.4297 175.561 11.2773C175.869 11.1211 176.213 11.043 176.592 11.043C176.99 11.043 177.338 11.1133 177.635 11.2539C177.936 11.3906 178.189 11.5918 178.396 11.8574C178.607 12.1191 178.773 12.4355 178.895 12.8066C179.016 13.1777 179.1 13.5977 179.146 14.0664V14.6055C179.104 15.0703 179.02 15.4883 178.895 15.8594C178.773 16.2305 178.607 16.5469 178.396 16.8086C178.189 17.0703 177.936 17.2715 177.635 17.4121C177.334 17.5488 176.982 17.6172 176.58 17.6172C176.209 17.6172 175.869 17.5371 175.561 17.377C175.256 17.2168 174.992 16.9922 174.77 16.7031C174.551 16.4141 174.381 16.0742 174.26 15.6836C174.143 15.2891 174.084 14.8613 174.084 14.4004ZM175.174 14.2773V14.4004C175.174 14.7168 175.205 15.0137 175.268 15.291C175.334 15.5684 175.436 15.8125 175.572 16.0234C175.709 16.2344 175.883 16.4004 176.094 16.5215C176.305 16.6387 176.557 16.6973 176.85 16.6973C177.209 16.6973 177.504 16.6211 177.734 16.4688C177.969 16.3164 178.156 16.1152 178.297 15.8652C178.438 15.6152 178.547 15.3438 178.625 15.0508V13.6387C178.578 13.4238 178.51 13.2168 178.42 13.0176C178.334 12.8145 178.221 12.6348 178.08 12.4785C177.943 12.3184 177.773 12.1914 177.57 12.0977C177.371 12.0039 177.135 11.957 176.861 11.957C176.564 11.957 176.309 12.0195 176.094 12.1445C175.883 12.2656 175.709 12.4336 175.572 12.6484C175.436 12.8594 175.334 13.1055 175.268 13.3867C175.205 13.6641 175.174 13.9609 175.174 14.2773ZM182.205 12.4199V17.5H181.115V11.1602H182.146L182.205 12.4199ZM181.982 14.0898L181.479 14.0723C181.482 13.6387 181.539 13.2383 181.648 12.8711C181.758 12.5 181.92 12.1777 182.135 11.9043C182.35 11.6309 182.617 11.4199 182.938 11.2715C183.258 11.1191 183.629 11.043 184.051 11.043C184.348 11.043 184.621 11.0859 184.871 11.1719C185.121 11.2539 185.338 11.3848 185.521 11.5645C185.705 11.7441 185.848 11.9746 185.949 12.2559C186.051 12.5371 186.102 12.877 186.102 13.2754V17.5H185.018V13.3281C185.018 12.9961 184.961 12.7305 184.848 12.5312C184.738 12.332 184.582 12.1875 184.379 12.0977C184.176 12.0039 183.938 11.957 183.664 11.957C183.344 11.957 183.076 12.0137 182.861 12.127C182.646 12.2402 182.475 12.3965 182.346 12.5957C182.217 12.7949 182.123 13.0234 182.064 13.2812C182.01 13.5352 181.982 13.8047 181.982 14.0898ZM186.09 13.4922L185.363 13.7148C185.367 13.3672 185.424 13.0332 185.533 12.7129C185.646 12.3926 185.809 12.1074 186.02 11.8574C186.234 11.6074 186.498 11.4102 186.811 11.2656C187.123 11.1172 187.48 11.043 187.883 11.043C188.223 11.043 188.523 11.0879 188.785 11.1777C189.051 11.2676 189.273 11.4062 189.453 11.5938C189.637 11.7773 189.775 12.0137 189.869 12.3027C189.963 12.5918 190.01 12.9355 190.01 13.334V17.5H188.92V13.3223C188.92 12.9668 188.863 12.6914 188.75 12.4961C188.641 12.2969 188.484 12.1582 188.281 12.0801C188.082 11.998 187.844 11.957 187.566 11.957C187.328 11.957 187.117 11.998 186.934 12.0801C186.75 12.1621 186.596 12.2754 186.471 12.4199C186.346 12.5605 186.25 12.7227 186.184 12.9062C186.121 13.0898 186.09 13.2852 186.09 13.4922ZM192.828 11.1602V17.5H191.738V11.1602H192.828ZM191.656 9.47852C191.656 9.30273 191.709 9.1543 191.814 9.0332C191.924 8.91211 192.084 8.85156 192.295 8.85156C192.502 8.85156 192.66 8.91211 192.77 9.0332C192.883 9.1543 192.939 9.30273 192.939 9.47852C192.939 9.64648 192.883 9.79102 192.77 9.91211C192.66 10.0293 192.502 10.0879 192.295 10.0879C192.084 10.0879 191.924 10.0293 191.814 9.91211C191.709 9.79102 191.656 9.64648 191.656 9.47852ZM195.652 12.5137V17.5H194.568V11.1602H195.594L195.652 12.5137ZM195.395 14.0898L194.943 14.0723C194.947 13.6387 195.012 13.2383 195.137 12.8711C195.262 12.5 195.438 12.1777 195.664 11.9043C195.891 11.6309 196.16 11.4199 196.473 11.2715C196.789 11.1191 197.139 11.043 197.521 11.043C197.834 11.043 198.115 11.0859 198.365 11.1719C198.615 11.2539 198.828 11.3867 199.004 11.5703C199.184 11.7539 199.32 11.9922 199.414 12.2852C199.508 12.5742 199.555 12.9277 199.555 13.3457V17.5H198.465V13.334C198.465 13.002 198.416 12.7363 198.318 12.5371C198.221 12.334 198.078 12.1875 197.891 12.0977C197.703 12.0039 197.473 11.957 197.199 11.957C196.93 11.957 196.684 12.0137 196.461 12.127C196.242 12.2402 196.053 12.3965 195.893 12.5957C195.736 12.7949 195.613 13.0234 195.523 13.2812C195.438 13.5352 195.395 13.8047 195.395 14.0898Z" fill="#82F3FF"/>
</svg>
